<svg width="18" height="20" viewBox="0 0 18 20" fill="none" xmlns="http://www.w3.org/2000/svg">
<g clip-path="url(#clip0_1_30)">
<path d="M16.3203 1.25H1.25149C0.561012 1.25 0 1.81641 0 2.51172V17.4883C0 18.1836 0.561012 18.75 1.25149 18.75H16.3203C17.0108 18.75 17.5758 18.1836 17.5758 17.4883V2.51172C17.5758 1.81641 17.0108 1.25 16.3203 1.25ZM5.31196 16.25H2.70698V7.89844H5.31588V16.25H5.31196ZM4.00947 6.75781C3.17384 6.75781 2.49905 6.08203 2.49905 5.25391C2.49905 4.42578 3.17384 3.75 4.00947 3.75C4.84118 3.75 5.51989 4.42578 5.51989 5.25391C5.51989 6.08594 4.8451 6.75781 4.00947 6.75781ZM15.0767 16.25H12.4717V12.1875C12.4717 11.2188 12.4521 9.97266 11.1182 9.97266C9.76082 9.97266 9.5529 11.0273 9.5529 12.1172V16.25H6.94792V7.89844H9.44697V9.03906H9.48228C9.83144 8.38281 10.6828 7.69141 11.9499 7.69141C14.5863 7.69141 15.0767 9.42188 15.0767 11.6719V16.25Z" fill="#6C6C6C"/>
</g>
<defs>
<clipPath id="clip0_1_30">
<rect width="17.5758" height="20" fill="white"/>
</clipPath>
</defs>
</svg>
