<svg width="18" height="20" viewBox="0 0 18 20" fill="none" xmlns="http://www.w3.org/2000/svg">
<g clip-path="url(#clip0_1_32)">
<path d="M8.79084 5.50781C6.29571 5.50781 4.28313 7.51172 4.28313 9.99609C4.28313 12.4805 6.29571 14.4844 8.79084 14.4844C11.286 14.4844 13.2985 12.4805 13.2985 9.99609C13.2985 7.51172 11.286 5.50781 8.79084 5.50781ZM8.79084 12.9141C7.17842 12.9141 5.86024 11.6055 5.86024 9.99609C5.86024 8.38672 7.1745 7.07812 8.79084 7.07812C10.4072 7.07812 11.7214 8.38672 11.7214 9.99609C11.7214 11.6055 10.4033 12.9141 8.79084 12.9141ZM14.5343 5.32422C14.5343 5.90625 14.0636 6.37109 13.4829 6.37109C12.8984 6.37109 12.4315 5.90234 12.4315 5.32422C12.4315 4.74609 12.9023 4.27734 13.4829 4.27734C14.0636 4.27734 14.5343 4.74609 14.5343 5.32422ZM17.5199 6.38672C17.4532 4.98438 17.1315 3.74219 16.0997 2.71875C15.0718 1.69531 13.8243 1.375 12.4158 1.30469C10.9643 1.22266 6.61348 1.22266 5.16192 1.30469C3.75742 1.37109 2.50986 1.69141 1.47807 2.71484C0.446276 3.73828 0.1285 4.98047 0.0578835 6.38281C-0.0245028 7.82812 -0.0245028 12.1602 0.0578835 13.6055C0.124577 15.0078 0.446276 16.25 1.47807 17.2734C2.50986 18.2969 3.7535 18.6172 5.16192 18.6875C6.61348 18.7695 10.9643 18.7695 12.4158 18.6875C13.8243 18.6211 15.0718 18.3008 16.0997 17.2734C17.1276 16.25 17.4493 15.0078 17.5199 13.6055C17.6023 12.1602 17.6023 7.83203 17.5199 6.38672ZM15.6446 15.1562C15.3386 15.9219 14.7462 16.5117 13.9733 16.8203C12.816 17.2773 10.0698 17.1719 8.79084 17.1719C7.51189 17.1719 4.76175 17.2734 3.60834 16.8203C2.8394 16.5156 2.24701 15.9258 1.93708 15.1562C1.47807 14.0039 1.58399 11.2695 1.58399 9.99609C1.58399 8.72266 1.48199 5.98438 1.93708 4.83594C2.24308 4.07031 2.83548 3.48047 3.60834 3.17187C4.76568 2.71484 7.51189 2.82031 8.79084 2.82031C10.0698 2.82031 12.8199 2.71875 13.9733 3.17187C14.7423 3.47656 15.3347 4.06641 15.6446 4.83594C16.1036 5.98828 15.9977 8.72266 15.9977 9.99609C15.9977 11.2695 16.1036 14.0078 15.6446 15.1562Z" fill="#6C6C6C"/>
</g>
<defs>
<clipPath id="clip0_1_32">
<rect width="17.5758" height="20" fill="white"/>
</clipPath>
</defs>
</svg>
