<svg width="18" height="18" viewBox="0 0 18 18" fill="none" xmlns="http://www.w3.org/2000/svg">
<g clip-path="url(#clip0_237_18)">
<path d="M17.9719 13.6047L17.1545 17.1484C17.0397 17.6494 16.5994 17.9999 16.0836 17.9999C7.21406 17.9992 0 10.7852 0 1.91525C0 1.39986 0.350473 0.958996 0.851484 0.844738L4.39523 0.0273554C4.91133 -0.0922462 5.43867 0.175644 5.65313 0.664387L7.28859 4.47884C7.47977 4.92814 7.35082 5.45161 6.97289 5.76028L5.08008 7.28009C6.27469 9.71361 8.25328 11.6922 10.6875 12.8875L12.2372 10.9961C12.5426 10.6171 13.07 10.486 13.5193 10.6806L17.3338 12.3157C17.7926 12.557 18.0914 13.0914 17.9719 13.6047Z" fill="#4A4A4A"/>
</g>
<defs>
<clipPath id="clip0_237_18">
<rect width="18" height="18" fill="white"/>
</clipPath>
</defs>
</svg>
