<svg width="82" height="18" viewBox="0 0 82 18" fill="none" xmlns="http://www.w3.org/2000/svg">
<path d="M82 9L74.5 4.66987V13.3301L82 9ZM4.1 9.75C4.51421 9.75 4.85 9.41421 4.85 9C4.85 8.58579 4.51421 8.25 4.1 8.25V9.75ZM12.3 8.25C11.8858 8.25 11.55 8.58579 11.55 9C11.55 9.41421 11.8858 9.75 12.3 9.75V8.25ZM20.5 9.75C20.9142 9.75 21.25 9.41421 21.25 9C21.25 8.58579 20.9142 8.25 20.5 8.25V9.75ZM28.7 8.25C28.2858 8.25 27.95 8.58579 27.95 9C27.95 9.41421 28.2858 9.75 28.7 9.75V8.25ZM36.9 9.75C37.3142 9.75 37.65 9.41421 37.65 9C37.65 8.58579 37.3142 8.25 36.9 8.25V9.75ZM45.1 8.25C44.6858 8.25 44.35 8.58579 44.35 9C44.35 9.41421 44.6858 9.75 45.1 9.75V8.25ZM53.3 9.75C53.7142 9.75 54.05 9.41421 54.05 9C54.05 8.58579 53.7142 8.25 53.3 8.25V9.75ZM61.5 8.25C61.0858 8.25 60.75 8.58579 60.75 9C60.75 9.41421 61.0858 9.75 61.5 9.75V8.25ZM69.7 9.75C70.1142 9.75 70.45 9.41421 70.45 9C70.45 8.58579 70.1142 8.25 69.7 8.25V9.75ZM77.9 8.25C77.4858 8.25 77.15 8.58579 77.15 9C77.15 9.41421 77.4858 9.75 77.9 9.75V8.25ZM0 9.75H4.1V8.25H0V9.75ZM12.3 9.75H20.5V8.25H12.3V9.75ZM28.7 9.75H36.9V8.25H28.7V9.75ZM45.1 9.75H53.3V8.25H45.1V9.75ZM61.5 9.75H69.7V8.25H61.5V9.75ZM82 9L67 0.339746V17.6603L82 9ZM4.1 10.5C4.92843 10.5 5.6 9.82843 5.6 9C5.6 8.17157 4.92843 7.5 4.1 7.5V10.5ZM12.3 7.5C11.4716 7.5 10.8 8.17157 10.8 9C10.8 9.82843 11.4716 10.5 12.3 10.5V7.5ZM20.5 10.5C21.3284 10.5 22 9.82843 22 9C22 8.17157 21.3284 7.5 20.5 7.5V10.5ZM28.7 7.5C27.8716 7.5 27.2 8.17157 27.2 9C27.2 9.82843 27.8716 10.5 28.7 10.5V7.5ZM36.9 10.5C37.7284 10.5 38.4 9.82843 38.4 9C38.4 8.17157 37.7284 7.5 36.9 7.5V10.5ZM45.1 7.5C44.2716 7.5 43.6 8.17157 43.6 9C43.6 9.82843 44.2716 10.5 45.1 10.5V7.5ZM53.3 10.5C54.1284 10.5 54.8 9.82843 54.8 9C54.8 8.17157 54.1284 7.5 53.3 7.5V10.5ZM61.5 7.5C60.6716 7.5 60 8.17157 60 9C60 9.82843 60.6716 10.5 61.5 10.5V7.5ZM69.7 10.5C70.5284 10.5 71.2 9.82843 71.2 9C71.2 8.17157 70.5284 7.5 69.7 7.5V10.5ZM77.9 7.5C77.0716 7.5 76.4 8.17157 76.4 9C76.4 9.82843 77.0716 10.5 77.9 10.5V7.5ZM0 10.5H4.1V7.5H0V10.5ZM12.3 10.5H20.5V7.5H12.3V10.5ZM28.7 10.5H36.9V7.5H28.7V10.5ZM45.1 10.5H53.3V7.5H45.1V10.5ZM61.5 10.5H69.7V7.5H61.5V10.5Z" fill="#080F16"/>
</svg>
