<svg width="80" height="81" viewBox="0 0 80 81" fill="none" xmlns="http://www.w3.org/2000/svg">
<rect y="0.5" width="80" height="80" rx="12" fill="#EAF7FE"/>
<path d="M59.4877 30.9822C58.8682 30.9645 58.2315 30.9645 57.5948 30.9822C57.3023 30.9822 57.1474 30.9289 57.0442 30.5908C56.5796 28.9894 55.9085 28.509 54.3254 28.4734C53.6371 28.4556 52.7595 28.7759 52.3465 28.3488C51.9163 27.9218 52.226 26.9965 52.226 26.3026C52.1916 24.4343 51.2968 23.4023 49.5072 23.4023C39.9226 23.3845 30.3207 23.3845 20.7188 23.4023C18.9464 23.4023 18 24.4521 18 26.2848C18 36.1779 18 46.0711 18 55.9642C18 56.2845 18 56.6225 18.086 56.925C18.4474 58.2239 19.3594 58.8289 20.9253 58.8289C26.4834 58.8289 32.0415 58.8289 37.5995 58.8289C43.1232 58.8289 48.6641 58.8289 54.1877 58.8289C55.9601 58.8289 56.8033 58.135 57.1646 56.4268C58.7478 49.0425 60.3309 41.6405 61.914 34.2562C62.2925 32.4769 61.2429 31.0534 59.4877 30.9822ZM49.817 26.8186C49.7654 28.4734 49.7998 28.4734 48.1995 28.4734C47.9069 28.4734 47.6316 28.4734 47.3391 28.4734C45.9797 28.509 44.9644 29.452 44.9472 30.8399C44.9128 33.6868 44.9472 36.5338 44.93 39.3629C44.93 39.7544 45.0332 39.8789 45.4118 39.8612C46.1862 39.8434 46.9605 39.8612 47.7348 39.8434C48.3199 39.8434 48.8361 40.0391 49.077 40.6085C49.318 41.2135 49.1287 41.7295 48.6641 42.2099C45.9108 45.0212 43.192 47.8682 40.456 50.6795C39.6989 51.4447 39.1482 51.4624 38.3911 50.6795C35.6551 47.8682 32.919 45.0212 30.183 42.2099C29.7184 41.7473 29.5119 41.2135 29.77 40.6085C30.011 40.0391 30.51 39.8256 31.1122 39.8434C31.8522 39.8612 32.6093 39.8256 33.3492 39.8612C33.7622 39.8789 33.9515 39.79 33.9515 39.2918C33.9343 36.7117 33.9343 34.1317 33.9515 31.5694C33.9515 31.1068 33.8311 30.9467 33.3664 30.9645C32.334 31 31.3015 30.9467 30.2691 30.9822C29.0129 31.0178 28.0837 31.783 27.8084 33.0463C26.1908 40.5729 24.5905 48.1173 22.9902 55.6617C22.887 56.1599 22.6977 56.2667 22.2675 56.2667C20.4263 56.3023 20.4263 56.32 20.4263 54.3984C20.4263 45.217 20.4435 36.0356 20.4091 26.8542C20.4091 26.0891 20.6156 25.9467 21.3211 25.9467C25.9327 25.9823 30.5444 25.9645 35.156 25.9645C39.7677 25.9645 44.3794 25.9823 48.991 25.9467C49.6621 25.9467 49.8342 26.1424 49.817 26.8186Z" fill="url(#paint0_linear_225_279)"/>
<defs>
<linearGradient id="paint0_linear_225_279" x1="18.4874" y1="32.5771" x2="62.2137" y2="33.1684" gradientUnits="userSpaceOnUse">
<stop stop-color="#0094B9"/>
<stop offset="1" stop-color="#004D79"/>
</linearGradient>
</defs>
</svg>
