<svg width="32" height="32" viewBox="0 0 32 32" fill="none" xmlns="http://www.w3.org/2000/svg">
<rect width="32" height="32" rx="5.16667" fill="#B0E1FC"/>
<circle cx="23.7787" cy="9.11111" r="4.22222" fill="#00BCEB" fill-opacity="0.57"/>
<circle cx="7.77867" cy="22.8889" r="4.22222" fill="#00BCEB" fill-opacity="0.57"/>
<path d="M5.6996 22.0312V9.20468C6.13937 8.32515 6.86009 7.98311 7.16549 7.92203H12.6626L15.0446 9.75439L21.2746 9.93762C22.7405 9.93762 23.2292 10.7927 23.2902 11.2203L23.4735 13.2359C25.8189 13.529 26.0388 14.8239 25.8555 15.4347L23.84 22.0312C23.5468 23.0573 22.8627 23.5582 22.5573 23.6803C17.9764 23.7414 8.52143 23.8269 7.34872 23.6803C6.17601 23.5337 5.76068 22.5198 5.6996 22.0312Z" fill="white"/>
<path fill-rule="evenodd" clip-rule="evenodd" d="M6.78845 7.64099C6.27254 7.82122 5.7954 8.2203 5.57572 8.65538C5.32471 9.15245 5.33278 8.91549 5.33278 15.8032C5.33278 22.861 5.31778 22.5 5.6332 23.0325C5.8335 23.3706 6.1717 23.6746 6.56532 23.8704L6.88251 24.0282L14.6186 24.0411C22.2497 24.0538 22.359 24.0527 22.6712 23.9571C23.2684 23.7741 23.7849 23.2664 23.9976 22.6533C24.0482 22.5074 24.5691 20.8467 25.1552 18.963L26.2209 15.5379L26.2215 15.0555C26.2221 14.5977 26.2132 14.554 26.0448 14.1978C25.6622 13.3882 24.9417 12.9571 23.9716 12.9571H23.6677V12.1713C23.6677 11.3098 23.6124 10.9866 23.3961 10.5853C23.2421 10.2993 22.9123 9.95535 22.6342 9.79071C22.1494 9.50368 22.2739 9.51294 18.5349 9.48521C15.2772 9.46104 15.0884 9.45491 14.93 9.36822C14.8381 9.31791 14.4621 8.97989 14.0944 8.61713C13.7267 8.25431 13.3292 7.90115 13.2111 7.83231C12.7357 7.55541 12.719 7.55406 9.75264 7.5558C7.2939 7.5572 7.00441 7.56554 6.78845 7.64099ZM12.7336 8.44163C12.8255 8.49194 13.2015 8.82933 13.5692 9.19142C14.2523 9.86418 14.4243 9.99853 14.792 10.1466C14.9827 10.2234 15.3117 10.2333 18.4394 10.2554L21.8772 10.2798L22.1505 10.4154C22.3009 10.4899 22.5001 10.6409 22.5933 10.7509C22.8485 11.0523 22.9038 11.3089 22.9038 12.194V12.9571H16.1802C11.52 12.9571 9.36962 12.9733 9.17328 13.0098C9.01743 13.0389 8.77177 13.1187 8.62734 13.1872C8.30901 13.3384 7.82533 13.8141 7.68409 14.1148C7.62804 14.2342 7.26907 15.3413 6.88643 16.5751C6.50373 17.8088 6.17098 18.8725 6.14696 18.9388C6.12022 19.0128 6.10666 17.1658 6.11196 14.1631L6.12061 9.26673L6.26385 9.00435C6.41019 8.73623 6.68493 8.49739 6.97127 8.38924C7.08338 8.34689 7.83798 8.33425 9.84489 8.341C12.4165 8.34968 12.5757 8.35518 12.7336 8.44163ZM24.708 13.8683C25.2089 14.097 25.5212 14.633 25.4668 15.1707C25.4282 15.5522 23.276 22.4699 23.1234 22.7029C22.9779 22.9251 22.7283 23.1242 22.4861 23.2116C22.3393 23.2645 20.9345 23.2764 14.7151 23.2773C7.1837 23.2783 7.12158 23.2776 6.90844 23.1803C6.43827 22.9657 6.143 22.5389 6.10996 22.0262C6.09067 21.7266 6.13956 21.5523 7.20924 18.1063C7.94713 15.7292 8.37165 14.4344 8.45459 14.3078C8.60733 14.0746 8.88947 13.8785 9.1909 13.7961C9.36847 13.7476 10.9808 13.7367 16.9354 13.7439L24.4555 13.753L24.708 13.8683Z" fill="#0D274D"/>
</svg>
