<svg width="80" height="81" viewBox="0 0 80 81" fill="none" xmlns="http://www.w3.org/2000/svg">
<rect y="0.5" width="80" height="80" rx="12" fill="#EAF7FE"/>
<g clip-path="url(#clip0_225_287)">
<path d="M57.5845 47.8153C55.7248 47.8245 54.0667 48.9971 53.4529 50.7468H50.2557V44.8838H47.3242V52.2125C47.3242 53.0187 47.9838 53.6783 48.79 53.6783H53.4529C54.2591 55.9685 56.7783 57.1686 59.0685 56.3624C61.3588 55.5563 62.5589 53.037 61.7527 50.7468C61.1206 48.9879 59.4533 47.8061 57.5845 47.8153Z" fill="url(#paint0_linear_225_287)"/>
<path d="M25.338 41.952H54.653C58.7022 41.9245 61.9635 38.6266 61.936 34.5775C61.9177 31.6918 60.2137 29.09 57.5845 27.9174C56.2654 25.7188 53.8744 24.363 51.3001 24.363C50.9245 24.363 50.5398 24.3996 50.1733 24.4638C47.9014 22.1735 44.5577 21.3124 41.4704 22.2193C39.2627 19.8467 36.1663 18.5 32.9233 18.5C27.1061 18.5 22.1683 22.769 21.3255 28.5221C19.2643 29.8687 18.0276 32.159 18.0093 34.6233C18.0093 38.6724 21.2981 41.952 25.338 41.952Z" fill="url(#paint1_linear_225_287)"/>
<path d="M41.4613 53.944V44.8838H38.5298V53.944C36.2396 54.7501 35.0395 57.2694 35.8457 59.5596C36.6518 61.8499 39.1711 63.0499 41.4613 62.2438C43.7516 61.4376 44.9516 58.9184 44.1455 56.6281C43.7058 55.3731 42.7164 54.3837 41.4613 53.944Z" fill="url(#paint2_linear_225_287)"/>
<path d="M29.7353 53.6783H26.5473C25.7319 51.3881 23.2218 50.188 20.9316 50.9941C18.6414 51.8095 17.4413 54.3196 18.2566 56.6098C19.0719 58.9 21.5729 60.1001 23.8631 59.2939C25.1181 58.8542 26.0984 57.8648 26.5473 56.6098H31.2102C32.0163 56.6098 32.6759 55.9502 32.6759 55.144V44.8838H29.7444V53.6783H29.7353Z" fill="url(#paint3_linear_225_287)"/>
</g>
<defs>
<linearGradient id="paint0_linear_225_287" x1="47.4869" y1="47.9248" x2="62.0779" y2="48.1237" gradientUnits="userSpaceOnUse">
<stop stop-color="#0094B9"/>
<stop offset="1" stop-color="#004D79"/>
</linearGradient>
<linearGradient id="paint1_linear_225_287" x1="18.496" y1="24.5802" x2="62.1484" y2="25.4709" gradientUnits="userSpaceOnUse">
<stop stop-color="#0094B9"/>
<stop offset="1" stop-color="#004D79"/>
</linearGradient>
<linearGradient id="paint2_linear_225_287" x1="35.6923" y1="49.4496" x2="44.4423" y2="49.4972" gradientUnits="userSpaceOnUse">
<stop stop-color="#0094B9"/>
<stop offset="1" stop-color="#004D79"/>
</linearGradient>
<linearGradient id="paint3_linear_225_287" x1="18.1636" y1="48.6848" x2="32.7512" y2="48.8439" gradientUnits="userSpaceOnUse">
<stop stop-color="#0094B9"/>
<stop offset="1" stop-color="#004D79"/>
</linearGradient>
<clipPath id="clip0_225_287">
<rect width="44" height="43.9817" fill="white" transform="translate(18 18.5)"/>
</clipPath>
</defs>
</svg>
