<svg width="80" height="81" viewBox="0 0 80 81" fill="none" xmlns="http://www.w3.org/2000/svg">
<rect y="0.5" width="80" height="80" rx="12" fill="#EAF7FE"/>
<g clip-path="url(#clip0_225_299)">
<path d="M40.7821 47.573C40.7821 47.1434 40.4297 46.791 40 46.791C39.5704 46.791 39.218 47.1434 39.218 47.573V51.5004H40.7907V47.573H40.7821Z" fill="url(#paint0_linear_225_299)"/>
<path d="M58.0726 24C58.0726 23.132 57.3679 22.4273 56.4999 22.4273H44.1593C43.3601 22.4273 42.5694 22.2211 41.8733 21.8344L36.5796 18.8953C36.1155 18.6375 35.5827 18.5 35.0499 18.5H23.4999C22.6319 18.5 21.9272 19.2047 21.9272 20.0727V27.1453H58.0726V24Z" fill="url(#paint1_linear_225_299)"/>
<path d="M23.4484 53.8546H34.5V52.282C34.5 50.4171 35.8148 48.8101 37.6453 48.432V47.564C37.6453 46.5671 38.2812 45.682 39.2179 45.3554V42.8546H38.4359C38.0062 42.8546 37.6539 42.5023 37.6539 42.0726C37.6539 41.6429 38.0062 41.2906 38.4359 41.2906H39.2179V39.7179H38.4359C38.0062 39.7179 37.6539 39.3656 37.6539 38.9359C37.6539 38.5062 38.0062 38.1539 38.4359 38.1539H39.2179V36.5812H38.4359C38.0062 36.5812 37.6539 36.2289 37.6539 35.7992C37.6539 35.3695 38.0062 35.0171 38.4359 35.0171H39.2179V33.4445H38.4359C38.0062 33.4445 37.6539 33.0921 37.6539 32.6625C37.6539 32.2328 38.0062 31.8804 38.4359 31.8804H39.2179V28.7351H19.5726C19.1086 28.7351 18.6703 28.9414 18.3695 29.2937C18.0687 29.646 17.9484 30.1187 18.0258 30.5742L21.9101 52.5742C22.039 53.3046 22.6836 53.8546 23.4484 53.8546Z" fill="url(#paint2_linear_225_299)"/>
<path d="M60.4273 28.7179H40.782V30.2906H41.564C41.9937 30.2906 42.346 30.6429 42.346 31.0726C42.346 31.5023 41.9937 31.8546 41.564 31.8546H40.782V33.4273H41.564C41.9937 33.4273 42.346 33.7796 42.346 34.2093C42.346 34.639 41.9937 34.9913 41.564 34.9913H40.782V36.564H41.564C41.9937 36.564 42.346 36.9163 42.346 37.346C42.346 37.7757 41.9937 38.1281 41.564 38.1281H40.782V39.7007H41.564C41.9937 39.7007 42.346 40.0531 42.346 40.4828C42.346 40.9124 41.9937 41.2648 41.564 41.2648H40.782V42.8374H41.564C41.9937 42.8374 42.346 43.1898 42.346 43.6195C42.346 44.0492 41.9937 44.4015 41.564 44.4015H40.782V45.3296C41.7187 45.6648 42.346 46.5499 42.3546 47.5382V48.4062C44.1851 48.7843 45.4914 50.3913 45.5 52.2562V53.8288H56.5515C57.3164 53.8288 57.9609 53.2788 58.0984 52.5312L61.9828 30.5312C62.0687 30.0757 61.9398 29.6031 61.639 29.2507C61.3296 28.9156 60.8914 28.7093 60.4273 28.7179Z" fill="url(#paint3_linear_225_299)"/>
<path d="M40 56.218C39.5704 56.218 39.218 56.5704 39.218 57V58.5727C39.218 59.0024 39.5704 59.3547 40 59.3547C40.4297 59.3547 40.7821 59.0024 40.7821 58.5727V57C40.7821 56.5704 40.4297 56.218 40 56.218Z" fill="url(#paint4_linear_225_299)"/>
<path d="M42.3546 50.0735V51.5C42.3546 52.368 41.6499 53.0727 40.7819 53.0727H39.2093C38.3413 53.0727 37.6366 52.368 37.6366 51.5V50.0735C36.6999 50.4086 36.0726 51.2938 36.064 52.2821V60.1368C36.064 61.4344 37.121 62.4915 38.4187 62.4915H41.564C42.8616 62.4915 43.9187 61.4344 43.9187 60.1368V52.2821C43.9187 51.2938 43.2913 50.4086 42.3546 50.0735ZM42.3546 58.5727C42.3546 59.8704 41.2976 60.9274 39.9999 60.9274C38.7022 60.9274 37.6452 59.8704 37.6452 58.5727V57C37.6452 55.7024 38.7022 54.6454 39.9999 54.6454C41.2976 54.6454 42.3546 55.7024 42.3546 57V58.5727Z" fill="url(#paint5_linear_225_299)"/>
</g>
<defs>
<linearGradient id="paint0_linear_225_299" x1="39.2354" y1="48.012" x2="40.7989" y2="48.0177" gradientUnits="userSpaceOnUse">
<stop stop-color="#0094B9"/>
<stop offset="1" stop-color="#004D79"/>
</linearGradient>
<linearGradient id="paint1_linear_225_299" x1="22.3277" y1="20.7414" x2="58.1878" y2="22.3747" gradientUnits="userSpaceOnUse">
<stop stop-color="#0094B9"/>
<stop offset="1" stop-color="#004D79"/>
</linearGradient>
<linearGradient id="paint2_linear_225_299" x1="18.238" y1="35.2476" x2="39.3274" y2="35.4416" gradientUnits="userSpaceOnUse">
<stop stop-color="#0094B9"/>
<stop offset="1" stop-color="#004D79"/>
</linearGradient>
<linearGradient id="paint3_linear_225_299" x1="41.0172" y1="35.228" x2="62.1184" y2="35.4223" gradientUnits="userSpaceOnUse">
<stop stop-color="#0094B9"/>
<stop offset="1" stop-color="#004D79"/>
</linearGradient>
<linearGradient id="paint4_linear_225_299" x1="39.2353" y1="57.0312" x2="40.7902" y2="57.0397" gradientUnits="userSpaceOnUse">
<stop stop-color="#0094B9"/>
<stop offset="1" stop-color="#004D79"/>
</linearGradient>
<linearGradient id="paint5_linear_225_299" x1="36.151" y1="53.293" x2="43.9595" y2="53.3468" gradientUnits="userSpaceOnUse">
<stop stop-color="#0094B9"/>
<stop offset="1" stop-color="#004D79"/>
</linearGradient>
<clipPath id="clip0_225_299">
<rect width="44" height="44" fill="white" transform="translate(18 18.5)"/>
</clipPath>
</defs>
</svg>
