<svg width="32" height="32" viewBox="0 0 32 32" fill="none" xmlns="http://www.w3.org/2000/svg">
<rect width="32" height="32" rx="5.16667" fill="#B0E1FC"/>
<circle cx="23.7787" cy="9.11111" r="4.22222" fill="#00BCEB" fill-opacity="0.57"/>
<circle cx="7.77868" cy="22.8889" r="4.22222" fill="#00BCEB" fill-opacity="0.57"/>
<rect x="7.271" y="7.23694" width="16.7542" height="4.94163" rx="0.643089" fill="white"/>
<rect x="7.271" y="13.2955" width="16.7542" height="4.94163" rx="0.643089" fill="white"/>
<rect x="7.271" y="19.151" width="16.7542" height="4.94163" rx="0.643089" fill="white"/>
<path fill-rule="evenodd" clip-rule="evenodd" d="M7.75091 7.05632C7.50792 7.14047 7.32001 7.27859 7.19816 7.46259C6.99416 7.77052 6.99288 7.78575 7.00344 9.773L7.01305 11.5797L7.10173 11.7687C7.21444 12.0091 7.39596 12.1906 7.63631 12.3033L7.82537 12.392H15.6609H23.4964L23.6855 12.3033C23.9258 12.1906 24.1074 12.0091 24.2201 11.7687L24.3088 11.5797V9.70118V7.82268L24.2201 7.63361C24.1074 7.39327 23.9258 7.21175 23.6855 7.09904L23.4964 7.01036L15.7117 7.00284C8.28992 6.9957 7.91872 6.99817 7.75091 7.05632ZM23.4678 7.59053C23.5322 7.62106 23.6259 7.69985 23.676 7.76558L23.7672 7.88509V9.70118V11.5173L23.676 11.6368C23.4839 11.8887 24.2256 11.8674 15.6609 11.8674C7.09618 11.8674 7.83793 11.8887 7.64578 11.6368L7.5546 11.5173V9.70118V7.88509L7.64531 7.76619C7.83681 7.51512 7.08914 7.53661 15.6558 7.53576C22.72 7.53505 23.3604 7.53952 23.4678 7.59053ZM21.0256 8.96951C20.8222 9.06567 20.6978 9.19202 20.6053 9.39656C20.4795 9.67434 20.5437 10.0186 20.7653 10.2555C20.894 10.393 21.1648 10.5128 21.3472 10.5128C21.5295 10.5128 21.8003 10.393 21.929 10.2555C22.1583 10.0104 22.2164 9.67065 22.0788 9.37963C21.8792 8.95746 21.4251 8.78065 21.0256 8.96951ZM9.0378 9.47065C8.99725 9.49024 8.9459 9.55015 8.9237 9.60373C8.87188 9.7288 8.92851 9.87938 9.04775 9.9337C9.16686 9.98799 14.5733 9.98799 14.6924 9.9337C14.8115 9.87945 14.8682 9.7288 14.8166 9.60404C14.7944 9.55059 14.7385 9.48967 14.6924 9.46865C14.5784 9.41673 9.14536 9.41862 9.0378 9.47065ZM7.75091 13.0134C7.50792 13.0975 7.32001 13.2356 7.19816 13.4196C6.99416 13.7276 6.99288 13.7428 7.00344 15.73L7.01305 17.5367L7.10173 17.7258C7.21444 17.9661 7.39596 18.1476 7.63631 18.2604L7.82537 18.349H15.6609H23.4964L23.6855 18.2604C23.9258 18.1476 24.1074 17.9661 24.2201 17.7258L24.3088 17.5367V15.6582V13.7797L24.2201 13.5906C24.1074 13.3503 23.9258 13.1688 23.6855 13.0561L23.4964 12.9674L15.7117 12.9599C8.28992 12.9527 7.91872 12.9552 7.75091 13.0134ZM23.4678 13.5476C23.5322 13.5781 23.6259 13.6569 23.676 13.7226L23.7672 13.8421V15.6582V17.4743L23.676 17.5938C23.4839 17.8457 24.2256 17.8244 15.6609 17.8244C7.09618 17.8244 7.83793 17.8457 7.64578 17.5938L7.5546 17.4743V15.6582V13.8421L7.64531 13.7232C7.83681 13.4721 7.08914 13.4936 15.6558 13.4928C22.72 13.4921 23.3604 13.4966 23.4678 13.5476ZM21.0256 14.9265C20.8222 15.0227 20.6978 15.1491 20.6053 15.3536C20.4795 15.6314 20.5437 15.9756 20.7653 16.2125C20.894 16.3501 21.1648 16.4699 21.3472 16.4699C21.5295 16.4699 21.8003 16.3501 21.929 16.2125C22.1583 15.9674 22.2164 15.6277 22.0788 15.3367C21.8792 14.9145 21.4251 14.7377 21.0256 14.9265ZM9.0378 15.4277C8.99725 15.4473 8.9459 15.5072 8.9237 15.5608C8.87188 15.6858 8.92851 15.8364 9.04775 15.8907C9.1079 15.9182 9.90692 15.929 11.8701 15.929C13.8332 15.929 14.6322 15.9182 14.6924 15.8907C14.7385 15.8697 14.7944 15.8088 14.8166 15.7554C14.8682 15.6306 14.8115 15.4799 14.6924 15.4257C14.5784 15.3738 9.14536 15.3757 9.0378 15.4277ZM7.75091 18.9704C7.50792 19.0545 7.32001 19.1927 7.19816 19.3766C6.99416 19.6846 6.99288 19.6998 7.00344 21.6871L7.01305 23.4937L7.10173 23.6828C7.21444 23.9232 7.39596 24.1047 7.63631 24.2174L7.82537 24.3061H15.6609H23.4964L23.6855 24.2174C23.9258 24.1047 24.1074 23.9232 24.2201 23.6828L24.3088 23.4937V21.6152V19.7367L24.2201 19.5477C24.1074 19.3073 23.9258 19.1258 23.6855 19.0131L23.4964 18.9244L15.7117 18.9169C8.28992 18.9098 7.91872 18.9122 7.75091 18.9704ZM23.4678 19.5046C23.5322 19.5351 23.6259 19.6139 23.676 19.6796L23.7672 19.7992V21.6152V23.4313L23.676 23.5508C23.4839 23.8028 24.2256 23.7814 15.6609 23.7814C7.09618 23.7814 7.83793 23.8028 7.64578 23.5508L7.5546 23.4313V21.6152V19.7992L7.64531 19.6803C7.83681 19.4292 7.08914 19.4507 15.6558 19.4498C22.72 19.4491 23.3604 19.4536 23.4678 19.5046ZM21.0256 20.8836C20.8222 20.9797 20.6978 21.1061 20.6053 21.3106C20.4795 21.5884 20.5437 21.9326 20.7653 22.1695C20.894 22.3071 21.1648 22.4269 21.3472 22.4269C21.5295 22.4269 21.8003 22.3071 21.929 22.1695C22.1583 21.9245 22.2164 21.5847 22.0788 21.2937C21.8792 20.8715 21.4251 20.6947 21.0256 20.8836ZM9.0378 21.3847C8.99725 21.4043 8.9459 21.4642 8.9237 21.5178C8.87188 21.6429 8.92851 21.7934 9.04775 21.8478C9.1079 21.8752 9.90692 21.886 11.8701 21.886C13.8332 21.886 14.6322 21.8752 14.6924 21.8478C14.8115 21.7935 14.8682 21.6429 14.8166 21.5181C14.7944 21.4647 14.7385 21.4037 14.6924 21.3827C14.5784 21.3308 9.14536 21.3327 9.0378 21.3847Z" fill="#0D274D"/>
</svg>
