<svg width="56" height="51" viewBox="0 0 56 51" fill="none" xmlns="http://www.w3.org/2000/svg">
<path d="M27.5749 20.7879H1.69614H0.847656V47.0909C0.847656 49.1273 2.54463 49.9192 3.39311 50.0606H52.6052C54.3022 50.0606 54.7264 48.0808 54.7264 47.0909V15.2727L51.3325 14H34.3628L27.5749 20.7879Z" fill="#D8F7FF"/>
<path d="M51.7567 11.0303L4.2416 10.606V20.3636C3.22341 20.3636 1.55473 21.2121 0.847656 21.6363V3.39392C0.847656 2.03634 2.54463 1.41412 3.39311 1.27271H21.2113L28.4234 7.2121H51.7567C54.1325 7.55149 55.0093 8.76765 55.1507 9.33331V15.2727C54.8113 14.2545 52.7466 14 51.7567 14V11.0303Z" fill="#93DAEC"/>
<path d="M51.7576 10.6061V14H33.9394L27.5758 20.3637H4.24243V10.6061H51.7576Z" fill="#9DEBFF"/>
<path fill-rule="evenodd" clip-rule="evenodd" d="M2.75961 0.325355C1.6762 0.709244 0.909876 1.4196 0.403952 2.50928C0.0196944 3.33709 0 4.45178 0 25.4556C0 46.4092 0.0203513 47.5768 0.401764 48.4109C0.891932 49.4836 1.91757 50.3756 3.006 50.6762C4.13076 50.9867 51.8692 50.9867 52.994 50.6762C54.0824 50.3756 55.1081 49.4836 55.5982 48.4109C55.9781 47.5798 56 46.5067 56 28.7181C56 10.9296 55.9781 9.85646 55.5982 9.02539C55.1081 7.95268 54.0824 7.0607 52.994 6.76012C52.4804 6.61831 47.7875 6.535 40.2695 6.53435L28.3589 6.53305L25.2734 3.51153C22.8764 1.16426 21.9941 0.436498 21.3193 0.2501C19.9586 -0.125307 3.84717 -0.0600561 2.75961 0.325355ZM24.3894 5.01054L27.7162 8.27305H40.1266C48.8361 8.27305 52.6798 8.34548 53.0152 8.516C54.0479 9.04083 54.249 9.56153 54.2542 11.722C54.2586 13.5759 54.2249 13.7432 53.8761 13.6005C53.6656 13.5142 53.3207 13.3945 53.1102 13.3343C52.7947 13.244 52.7273 12.9689 52.7273 11.7711C52.7273 10.9307 52.6165 10.2075 52.4647 10.0566C52.0835 9.67767 3.91653 9.67767 3.53534 10.0566C3.34715 10.2436 3.27275 11.6556 3.27275 15.0336C3.27275 19.3386 3.23927 19.7595 2.88981 19.8593C2.67908 19.9196 2.33465 20.0392 2.12392 20.1255C1.76308 20.2732 1.74119 19.7904 1.74579 11.722C1.75104 2.4523 1.72456 2.66719 2.94451 2.00055C3.2419 1.83807 6.21683 1.75912 12.2223 1.75455L21.0626 1.74803L24.3894 5.01054ZM50.9767 12.2957V13.0559L30.5951 13.1114C11.457 13.1633 10.1988 13.1901 9.97187 13.5475C9.79571 13.825 9.79571 14.0312 9.97187 14.3087C10.1959 14.6619 11.0174 14.6935 21.3438 14.7457L32.4743 14.8022L30.0769 17.1925L27.6792 19.5831H16.3513H5.02335V17.1906V14.7981H6.20895C7.78274 14.7981 8.08691 14.6571 8.08691 13.9281C8.08691 13.199 7.78274 13.0581 6.20895 13.0581H5.02335V12.2968V11.5356H28H50.9767V12.2957ZM53.0152 15.041C53.278 15.1746 53.6632 15.4928 53.8713 15.7479C54.2216 16.1779 54.2494 17.3642 54.2494 31.9806C54.2494 46.5971 54.2216 47.7834 53.8713 48.2134C53.6632 48.4685 53.278 48.7867 53.0152 48.9203C52.6715 49.0949 45.641 49.1632 28 49.1632C10.359 49.1632 3.32855 49.0949 2.98478 48.9203C2.72197 48.7867 2.33684 48.4685 2.12873 48.2134C1.78036 47.7858 1.7506 46.7685 1.7506 35.2432C1.7506 23.7178 1.78036 22.7005 2.12873 22.2729C2.33684 22.0178 2.72197 21.6996 2.98478 21.5661C3.32024 21.3955 7.1639 21.3231 15.8734 21.3231H28.2838L31.6106 18.0606L34.9374 14.7981H43.7373C49.7876 14.7981 52.6866 14.874 53.0152 15.041Z" fill="#00BCEB"/>
</svg>
